<svg height="464pt" viewBox="0 0 464 464" fill="#fff" width="464pt" xmlns="http://www.w3.org/2000/svg"><path d="m276.671875 344c-23.367187-23.367188-38.808594-54.246094-43.472656-86.945312-.089844-.597657-.609375-1.054688-1.214844-1.054688-.609375 0-1.128906.457031-1.21875 1.054688-4.664063 32.699218-20.101563 63.578124-43.46875 86.945312l-8.121094 8.121094c-4.511719 4.511718-8.265625 9.574218-11.242187 15.023437.007812.289063.050781.566407.050781.855469h-.503906c-4.890625 9.289062-7.496094 19.671875-7.496094 30.464844 0 36.136718 29.398437 65.535156 65.535156 65.535156h12.917969c36.144531 0 65.546875-29.398438 65.546875-65.535156 0-17.503906-6.816406-33.96875-19.191406-46.34375zm-52.984375 103.960938c-26.746094-.976563-47.703125-22.722657-47.703125-49.496094 0-13.03125 5.285156-25.808594 14.503906-35.03125l8.117188-8.121094c2.761719-2.761719 5.417969-5.617188 7.976562-8.550781l12.082031 10.484375c-2.800781 3.234375-5.714843 6.363281-8.746093 9.394531l-8.109375 8.113281c-6.242188 6.238282-9.824219 14.878906-9.824219 23.710938 0 18.136718 14.183594 32.847656 32.292969 33.511718zm16.589844 0-.582032-15.984376c18.105469-.664062 32.289063-15.382812 32.289063-33.511718 0-8.832032-3.585937-17.472656-9.824219-23.722656l-8.113281-8.117188c-3.023437-3.023438-5.945313-6.152344-8.742187-9.386719l12.078124-10.484375c2.558594 2.933594 5.214844 5.796875 7.976563 8.542969l8.121094 8.128906c9.214843 9.230469 14.503906 22.007813 14.503906 35.039063 0 26.773437-20.960937 48.519531-47.707031 49.496094zm0 0"/><path d="m144.152344 421.425781-10.722656-11.875c4.242187-3.824219 7.761718-8.285156 10.65625-13.160156.289062-11.453125 2.9375-22.488281 7.695312-32.589844-2.078125-28.289062-24.925781-50.648437-53.765625-51.6875l.566406-15.984375c30.816407 1.101563 56.289063 21.160156 65.578125 48.765625 1.207032-1.382812 2.398438-2.78125 3.710938-4.085937l8.113281-8.121094c2.175781-2.175781 4.230469-4.472656 6.246094-6.785156-16.046875-32.910156-49.289063-53.902344-86.246094-53.902344-.601563 0-1.183594.046875-1.777344.089844l-7.59375.308594-7.261719-19.335938c-4.886718-13.007812-7.367187-26.664062-7.367187-40.566406 0-20.03125 5.253906-39.824219 15.191406-57.214844l9.605469-16.816406c-10.886719 3.613281-20.375 11.03125-26.40625 21.085937l-15.03125 25.066407-6.511719-13.03125c-7.289062-14.578126-20.871093-24.417969-36.578125-26.9375l29.457032 70.679687c4.160156 10.007813 6.273437 20.566406 6.273437 31.398437 0 20.519532-8.035156 40.539063-22.632813 56.363282-19.351562 21-28.289062 49.445312-24.496093 78.039062 5.664062 42.800782 40.960937 77.390625 83.917969 82.230469 26.195312 2.976563 51.984374-4.792969 72.007812-21.222656-4.542969-7.121094-7.972656-14.984375-10.132812-23.367188-.867188.855469-1.59375 1.832031-2.496094 2.65625zm-50.761719 18.445313c-38.917969-1.382813-69.40625-32.960938-69.40625-71.871094 0-20.28125 8.6875-39.753906 23.832031-53.425781l10.71875 11.875c-11.792968 10.648437-18.550781 25.789062-18.550781 41.550781 0 30.257812 23.710937 54.808594 53.976563 55.886719zm2.59375-31.871094c-22.058594 0-40-17.945312-40-40 0-12.351562 5.679687-23.839844 15.597656-31.519531l9.800781 12.640625c-5.976562 4.632812-9.398437 11.511718-9.398437 18.878906 0 13.230469 10.765625 24 24 24 1.230469 0 2.40625-.207031 3.589844-.390625l2.433593 15.816406c-1.984374.300781-3.96875.574219-6.023437.574219zm24.398437-8.480469-9.800781-12.640625c5.976563-4.632812 9.402344-11.511718 9.402344-18.878906 0-13.230469-10.769531-24-24-24-1.234375 0-2.410156.207031-3.59375.390625l-2.429687-15.816406c1.980468-.300781 3.964843-.574219 6.023437-.574219 22.054687 0 40 17.945312 40 40 0 12.351562-5.679687 23.839844-15.601563 31.519531zm0 0"/><path d="m199.984375 176h211.183594c15.886719 0 28.816406-12.929688 28.816406-28.816406 0-12.726563-8.167969-23.792969-20.335937-27.535156l-49.898438-15.351563c-20.191406-6.207031-36.277344-21.023437-44.117188-40.640625l-1.992187-4.976562-27.859375 12.382812c-16.847656 7.488281-28.476562 23.058594-31.183594 40.9375h31.386719v16h-96c-13.234375 0-24 10.769531-24 24s10.765625 24 24 24zm200-32h16v16h-16zm-72-32h16v16h-16zm-56 32h16v16h-16zm-80 0h16v16h-16zm0 0"/><path d="m437.742188 25.511719c1.464843-2.441407 2.242187-5.230469 2.242187-8.078125v-1.722656c0-8.664063-7.050781-15.710938-15.714844-15.710938-6.453125 0-12.34375 4.046875-14.664062 10.070312l-30.863281 80.25 16.984374 5.222657zm0 0"/><path d="m463.984375 208v-16h-304v16h248v16h-248v8c0 17.496094 3.023437 34.601562 8.832031 50.921875 9.488282 8.125 17.664063 17.871094 24.078125 28.972656 11.433594-17.109375 19.128907-36.679687 22.039063-57.101562 1.210937-8.433594 8.539062-14.792969 17.050781-14.792969s15.839844 6.359375 17.046875 14.792969c4.183594 29.296875 18.015625 56.960937 38.953125 77.894531l8.117187 8.121094c11.847657 11.847656 19.554688 26.71875 22.496094 42.863281 80.738282-3.503906 145.386719-70.097656 145.386719-151.671875v-8h-40v-16zm-34.121094 46.503906 15.71875 2.984375c-1.085937 5.726563-2.566406 11.457031-4.398437 17.007813l-15.191406-5c1.605468-4.902344 2.910156-9.953125 3.871093-14.992188zm4.398438 37.007813c-17.542969 35.914062-49.71875 62.214843-88.277344 72.175781l-4-15.488281c34.015625-8.800781 62.40625-32.015625 77.902344-63.726563zm0 0"/></svg>