<svg  fill="#fff" viewBox="0 -64 480.00757 480" xmlns="http://www.w3.org/2000/svg"><path d="m376.003906.00390625h-272c-3.574218 0-6.714844 2.37109375-7.695312 5.80468775l-96 336c-.691406 2.414062-.207032 5.011718 1.304687 7.015625 1.511719 2.003906 3.878907 3.183593 6.390625 3.179687h32c3.574219 0 6.710938-2.371094 7.695313-5.804687l14.339843-50.195313h159.355469l-13.085937 45.804688c-.691406 2.414062-.207032 5.011718 1.304687 7.015625 1.511719 2.003906 3.878907 3.183593 6.390625 3.179687h32c3.574219 0 6.710938-2.371094 7.695313-5.804687l14.339843-50.195313h147.929688l14.339844 50.195313c.980468 3.433593 4.121094 5.804687 7.695312 5.804687h32c2.511719.003906 4.878906-1.175781 6.390625-3.179687 1.511719-2.003907 1.996094-4.601563 1.304688-7.015625l-96-336c-.984375-3.433594-4.121094-5.80468775-7.695313-5.80468775zm-327.695312 285.80468775v.019531l-14.335938 50.175781h-15.359375l91.421875-320h15.359375l-15.238281 53.332032zm18.304687-5.804688 12.570313-44 62.855468-220h159.355469l-12.570312 44-62.855469 220zm189.695313 5.804688v.019531l-14.335938 50.175781h-15.359375l15.238281-53.332031 76.1875-266.667969h15.355469l-15.238281 53.332032zm18.304687-5.804688 17.347657-60.722656 52.042968-182.148438 52.042969 182.148438 17.347656 60.722656zm171.421875 56-14.335937-50.175781v-.019531l-61.847657-216.472656-15.238281-53.332032h15.359375l91.421875 320zm0 0"/><path d="m184.003906 56.003906h48c4.417969 0 8-3.582031 8-8 0-4.417968-3.582031-8-8-8h-48c-4.417968 0-8 3.582032-8 8 0 4.417969 3.582032 8 8 8zm0 0"/><path d="m144.003906 96.003906h16c4.417969 0 8-3.582031 8-8 0-4.417968-3.582031-8-8-8h-16c-4.417968 0-8 3.582032-8 8 0 4.417969 3.582032 8 8 8zm0 0"/><path d="m264.003906 80.003906h-56c-4.417968 0-8 3.582032-8 8 0 4.417969 3.582032 8 8 8h56c4.417969 0 8-3.582031 8-8 0-4.417968-3.582031-8-8-8zm0 0"/><path d="m136.003906 128.003906h16c4.417969 0 8-3.582031 8-8 0-4.417968-3.582031-8-8-8h-16c-4.417968 0-8 3.582032-8 8 0 4.417969 3.582032 8 8 8zm0 0"/><path d="m256.003906 112.003906h-56c-4.417968 0-8 3.582032-8 8 0 4.417969 3.582032 8 8 8h56c4.417969 0 8-3.582031 8-8 0-4.417968-3.582031-8-8-8zm0 0"/><path d="m128.003906 160.003906h16c4.417969 0 8-3.582031 8-8 0-4.417968-3.582031-8-8-8h-16c-4.417968 0-8 3.582032-8 8 0 4.417969 3.582032 8 8 8zm0 0"/><path d="m248.003906 144.003906h-56c-4.417968 0-8 3.582032-8 8 0 4.417969 3.582032 8 8 8h56c4.417969 0 8-3.582031 8-8 0-4.417968-3.582031-8-8-8zm0 0"/><path d="m120.003906 192.003906h16c4.417969 0 8-3.582031 8-8 0-4.417968-3.582031-8-8-8h-16c-4.417968 0-8 3.582032-8 8 0 4.417969 3.582032 8 8 8zm0 0"/><path d="m232.003906 176.003906h-48c-4.417968 0-8 3.582032-8 8 0 4.417969 3.582032 8 8 8h48c4.417969 0 8-3.582031 8-8 0-4.417968-3.582031-8-8-8zm0 0"/><path d="m208.003906 248.003906h-112c-4.417968 0-8 3.582032-8 8 0 4.417969 3.582032 8 8 8h112c4.417969 0 8-3.582031 8-8 0-4.417968-3.582031-8-8-8zm0 0"/></svg>